<?xml version="1.0" standalone="no"?>
<!DOCTYPE svg PUBLIC "-//W3C//DTD SVG 20010904//EN"
 "http://www.w3.org/TR/2001/REC-SVG-20010904/DTD/svg10.dtd">
<svg version="1.0" xmlns="http://www.w3.org/2000/svg"
 width="700.000000pt" height="700.000000pt" viewBox="0 0 700.000000 700.000000"
 preserveAspectRatio="xMidYMid meet">
<metadata>
Created by potrace 1.11, written by Peter Selinger 2001-2013
</metadata>
<g transform="translate(0.000000,700.000000) scale(0.100000,-0.100000)"
fill="#000000" stroke="none">
<path d="M3537 5374 c-1 -1 -58 -4 -127 -7 -69 -4 -134 -8 -145 -11 -11 -2
-49 -7 -85 -11 -73 -8 -316 -56 -412 -81 -35 -9 -74 -18 -87 -21 -57 -10 -252
-78 -326 -114 -240 -114 -411 -291 -479 -495 -14 -44 -22 -53 -66 -75 -27 -13
-50 -27 -50 -31 0 -5 -4 -8 -8 -8 -5 0 -58 -27 -118 -61 -130 -73 -334 -172
-424 -206 -36 -14 -123 -42 -195 -63 -71 -21 -172 -53 -224 -71 l-94 -33 -16
24 c-9 13 -41 49 -72 81 -187 190 -510 107 -590 -151 -85 -275 181 -541 451
-450 36 12 82 35 103 50 l39 29 55 -36 c184 -117 393 -152 688 -113 300 39
426 47 620 41 l50 -2 35 -72 c51 -104 152 -269 219 -357 43 -56 62 -90 70
-129 22 -103 49 -129 119 -116 44 8 142 57 195 98 20 16 37 27 37 25 0 -2 -10
-31 -22 -63 -19 -51 -23 -82 -24 -206 -1 -80 -4 -163 -8 -185 -7 -35 -41 -113
-55 -124 -20 -17 -91 -112 -108 -145 -19 -37 -24 -54 -38 -125 -8 -38 -8 -201
-1 -240 23 -121 80 -207 173 -256 59 -32 154 -45 229 -30 97 19 167 96 158
172 l-4 32 67 -38 c159 -91 286 -105 408 -45 59 30 80 47 164 143 35 39 69 72
76 72 7 0 22 -27 34 -60 28 -77 58 -95 146 -87 34 3 73 10 86 15 30 12 203 62
244 71 50 10 152 6 177 -8 13 -7 39 -33 58 -58 19 -25 50 -53 70 -61 41 -18
167 -24 230 -12 25 4 59 11 75 14 17 2 68 12 115 20 179 33 261 27 337 -24 90
-61 155 -67 330 -30 54 12 125 27 158 34 33 7 86 12 118 11 49 -3 67 -9 119
-44 34 -23 69 -41 79 -41 10 0 67 16 126 35 159 52 258 46 456 -28 163 -61
262 -38 304 72 15 38 18 74 17 201 -1 85 -7 168 -13 183 -14 36 -57 53 -146
60 -39 3 -85 11 -103 19 -17 7 -78 59 -135 115 -83 81 -113 104 -148 113 -53
15 -88 38 -182 120 -29 25 -65 61 -82 80 -128 148 -282 248 -375 245 -36 -2
-96 -24 -110 -41 -24 -27 -31 -14 -27 49 2 43 11 75 25 99 29 46 52 142 56
228 l4 69 -30 -15 c-37 -19 -45 -13 -42 35 2 43 36 98 88 141 112 94 153 153
129 186 -5 6 -46 35 -93 65 -47 29 -89 57 -95 62 -5 5 -29 21 -51 35 -224 144
-288 203 -342 311 l-37 75 0 135 c0 146 -4 158 -57 200 -31 25 -138 81 -154
81 -6 0 -17 6 -23 13 -8 11 -6 18 8 31 11 10 32 43 46 74 46 96 25 181 -66
270 -42 42 -140 97 -199 112 -92 25 -119 22 -191 -21 l-67 -40 -82 56 c-230
154 -495 224 -893 239 -37 1 -68 2 -70 0z"/>
</g>
</svg>
